<?xml version="1.0" standalone="no"?>
<!DOCTYPE svg PUBLIC "-//W3C//DTD SVG 20010904//EN"
 "http://www.w3.org/TR/2001/REC-SVG-20010904/DTD/svg10.dtd">
<svg version="1.0" xmlns="http://www.w3.org/2000/svg"
 width="500.000000pt" height="500.000000pt" viewBox="0 0 500.000000 500.000000"
 preserveAspectRatio="xMidYMid meet">

<g transform="translate(0.000000,500.000000) scale(0.100000,-0.100000)"
fill="#000000" stroke="none">
<path d="M2459 4381 c-36 -28 -550 -369 -663 -440 l-99 -62 -286 -2 -286 -2
-5 -271 c-3 -175 -9 -276 -16 -285 -6 -8 -64 -113 -129 -234 -65 -121 -164
-304 -221 -407 -57 -102 -104 -192 -104 -198 0 -7 33 -67 74 -134 83 -137 139
-237 290 -519 l106 -199 0 -269 0 -269 297 0 298 0 60 -37 c33 -20 170 -105
305 -188 363 -225 397 -245 414 -245 8 0 163 86 343 192 180 105 362 211 403
235 l75 43 272 0 c149 0 274 3 276 8 3 4 8 130 13 281 l7 274 90 161 c138 248
331 607 346 644 13 31 11 36 -104 250 -65 119 -169 312 -232 427 l-113 210 0
268 0 267 -288 0 -287 0 -325 213 c-179 117 -356 234 -395 260 -38 26 -75 47
-81 47 -6 0 -22 -8 -35 -19z m428 -403 l378 -253 180 -5 180 -6 -182 -2 -182
-2 -382 255 -382 255 -31 -23 c-27 -21 -287 -190 -626 -408 l-115 -74 -194 -5
-194 -5 48 -37 c34 -27 52 -35 64 -29 9 5 70 16 135 26 66 9 126 20 135 23 9
3 62 35 118 72 56 36 144 92 195 124 139 89 377 244 425 278 l43 29 2 -162 3
-163 240 -174 c356 -258 436 -309 490 -318 46 -6 48 -6 98 43 29 27 77 69 107
94 30 24 102 84 160 133 l105 90 5 -209 5 -210 154 -285 c85 -157 182 -343
217 -414 l63 -130 -22 -40 c-13 -23 -76 -134 -139 -247 -64 -114 -189 -334
-278 -489 -88 -156 -159 -288 -156 -295 5 -13 130 -125 139 -125 4 0 8 71 10
157 l3 158 2 -167 c2 -135 -1 -168 -11 -168 -8 0 -49 31 -93 70 -78 69 -79 69
-104 52 -14 -9 -117 -72 -230 -141 -549 -333 -717 -435 -745 -451 l-30 -18
-390 244 c-214 134 -448 280 -518 325 l-128 81 -75 -81 c-42 -44 -80 -81 -85
-81 -6 0 -9 81 -9 204 l1 203 -29 49 c-16 27 -68 121 -117 209 -48 88 -137
247 -197 353 l-110 193 108 202 c60 111 161 306 226 432 l117 230 1 190 0 190
199 -3 c172 -3 204 -1 232 14 72 37 720 453 749 480 8 8 20 14 27 14 6 0 182
-114 390 -252z"/>
<path d="M1300 3543 l0 -168 54 100 c29 55 59 101 68 103 8 2 42 -22 76 -52
34 -31 87 -74 117 -97 31 -23 53 -44 51 -47 -3 -2 -55 37 -116 87 -65 54 -117
90 -126 87 -7 -3 -66 -110 -130 -238 -99 -199 -200 -390 -385 -735 -21 -40
-39 -74 -39 -76 0 -13 60 9 65 23 3 10 17 30 30 46 14 16 25 35 25 42 0 6 5
12 10 12 6 0 10 5 10 10 0 12 78 169 195 395 96 185 126 244 123 247 -1 2 11
23 28 48 31 45 45 73 50 99 1 8 10 21 18 30 14 13 21 14 49 2 17 -7 38 -13 45
-14 6 0 12 -5 12 -12 0 -11 87 -89 102 -91 5 -1 13 -2 19 -3 6 0 9 -8 5 -16
-9 -24 1 -18 24 15 14 20 17 30 8 28 -7 -2 -12 2 -11 9 2 7 -14 25 -34 40 -21
15 -98 84 -173 151 -74 68 -143 128 -152 133 -17 9 -18 -1 -18 -158z"/>
<path d="M3617 3637 l-69 -62 22 -20 c11 -10 44 -60 72 -109 28 -50 52 -93 54
-95 2 -2 4 75 4 172 0 98 -3 177 -7 177 -5 -1 -39 -29 -76 -63z"/>
<path d="M2306 3551 c-99 -75 -181 -141 -183 -146 -1 -6 9 -17 25 -25 15 -9
54 -31 86 -50 33 -18 56 -28 52 -22 -4 7 -5 12 -1 12 8 0 209 -141 216 -151 3
-5 64 36 137 90 73 55 138 101 145 104 14 6 4 14 -108 94 -44 31 -101 74 -127
95 -29 24 -53 37 -60 32 -10 -5 -10 -4 -2 5 13 14 37 3 109 -54 22 -17 81 -59
132 -94 l92 -63 25 19 c14 10 25 20 26 23 0 3 -26 23 -58 44 -31 22 -114 82
-183 133 -70 51 -131 93 -135 92 -5 0 -90 -62 -188 -138z m124 -4 c0 -2 -20
-18 -45 -36 -25 -18 -45 -30 -45 -27 0 4 81 66 87 66 2 0 3 -1 3 -3z m201
-194 c-114 -89 -107 -88 -190 -15 l-54 48 67 52 c60 48 80 72 58 72 -13 0
-182 -129 -181 -138 0 -7 175 -154 191 -161 5 -1 17 3 27 10 9 8 7 4 -6 -8
-22 -21 -24 -22 -42 -5 -9 9 -59 51 -110 92 -85 69 -91 76 -74 88 10 7 58 42
106 77 l88 63 88 -66 88 -66 -56 -43z m-301 123 c0 -2 -27 -24 -61 -49 l-60
-45 36 -27 c19 -15 33 -30 31 -32 -8 -8 -77 49 -73 61 7 21 127 108 127 92z
m410 -110 c0 -3 -28 -26 -62 -52 -35 -26 -56 -40 -48 -31 14 14 102 85 108 86
1 1 2 -1 2 -3z m-130 -100 c0 -2 -8 -10 -17 -17 -16 -13 -17 -12 -4 4 13 16
21 21 21 13z"/>
<path d="M2480 3445 c-23 -19 -49 -39 -57 -44 -13 -7 -6 -17 32 -52 26 -24 53
-47 60 -51 12 -7 134 78 135 94 0 11 -100 88 -115 88 -7 0 -32 -16 -55 -35z"/>
<path d="M3470 3513 c-30 -25 -83 -72 -117 -105 l-62 -59 107 -167 c60 -92
141 -220 181 -285 40 -66 100 -156 135 -200 35 -45 80 -108 100 -140 l37 -58
130 2 c86 2 129 6 129 14 0 17 -66 150 -200 400 -275 517 -351 646 -378 644
-4 0 -32 -21 -62 -46z"/>
<path d="M1810 3379 c-19 -11 -45 -19 -56 -19 -12 0 -31 -8 -43 -17 -11 -10
-97 -144 -190 -298 -93 -154 -208 -341 -255 -417 -47 -75 -86 -143 -86 -152 0
-30 136 -239 205 -316 39 -42 95 -117 125 -166 163 -264 175 -280 256 -331 41
-27 219 -144 395 -260 176 -117 324 -213 328 -213 20 0 736 458 808 517 12 10
74 103 139 208 88 144 132 206 183 255 46 45 89 103 139 186 39 66 72 127 72
135 0 16 -52 93 -144 214 -32 43 -90 130 -128 194 -79 129 -264 416 -286 444
-8 9 -27 17 -42 17 -14 0 -35 7 -46 15 -28 21 -43 19 -107 -20 -32 -19 -63
-33 -68 -29 -5 3 -8 0 -7 -7 2 -6 -3 -14 -11 -17 -9 -3 -11 0 -6 9 5 8 4 11
-1 6 -5 -5 -9 -13 -9 -17 0 -5 -22 -23 -50 -41 -27 -17 -43 -24 -36 -15 11 13
11 17 -3 22 -15 6 -15 7 0 19 16 11 16 12 0 18 -10 4 -14 11 -11 17 3 5 1 10
-4 10 -6 0 -11 -5 -11 -11 0 -5 -4 -8 -9 -4 -6 3 -14 -3 -20 -12 -8 -15 -10
-15 -11 -2 0 8 6 21 13 28 10 10 8 12 -8 9 -12 -2 -19 2 -17 10 3 16 -28 1
-48 -22 -17 -21 -1 -20 22 1 10 9 18 11 18 6 0 -18 -29 -36 -46 -29 -15 6 -74
-34 -204 -138 -25 -20 -49 -36 -53 -36 -5 0 -23 11 -40 24 -18 13 -59 41 -92
61 l-60 38 43 -43 c23 -24 42 -48 42 -53 0 -4 5 -5 10 -2 6 3 10 -1 10 -9 0
-9 6 -16 14 -16 19 0 56 -47 56 -71 0 -12 7 -19 20 -19 13 0 20 -7 20 -20 0
-18 3 -19 23 -10 20 10 20 10 -3 -9 -13 -10 -29 -17 -35 -13 -5 3 -48 30 -95
60 -358 231 -555 354 -562 351 -2 -1 -19 -10 -38 -20z m1573 -276 c85 -137
199 -322 254 -413 55 -91 105 -174 113 -186 11 -19 9 -27 -28 -80 -22 -32
-115 -172 -206 -311 -118 -180 -174 -257 -195 -268 -25 -12 -70 -15 -268 -13
l-238 2 240 6 c132 3 247 9 255 13 23 12 65 71 215 302 75 116 154 236 176
268 21 32 39 59 39 61 0 6 -458 752 -515 839 -9 15 -13 27 -7 27 6 0 80 -111
165 -247z m-1632 223 c-7 -8 -122 -198 -256 -422 l-245 -409 47 -68 c27 -37
118 -170 203 -295 181 -267 181 -265 200 -278 8 -5 110 -11 225 -15 l210 -5
-218 -2 -219 -2 -26 28 c-15 16 -92 125 -171 243 -80 118 -171 251 -203 296
-32 44 -58 88 -58 96 0 14 133 244 358 617 124 206 140 230 154 230 7 0 6 -5
-1 -14z m1516 -1116 l157 0 -49 -50 -49 -50 -161 0 -160 0 -4 368 -4 368 54
47 54 47 3 -365 2 -365 157 0z m-1137 643 c33 -27 59 -51 59 -54 1 -4 -15 -19
-34 -33 l-35 -27 -48 40 c-48 41 -49 41 -132 41 -82 0 -85 -1 -142 -41 -59
-41 -83 -44 -107 -15 -9 10 0 23 41 58 95 80 90 78 221 78 l119 0 58 -47z
m760 34 c0 -2 -22 -20 -49 -40 l-48 -37 -184 0 -184 -1 -59 -44 c-33 -25 -63
-45 -67 -45 -4 0 -9 19 -11 41 -4 41 -2 44 52 85 l55 44 248 0 c136 0 247 -1
247 -3z m-776 -228 c47 -38 86 -73 86 -77 0 -4 -16 -18 -35 -31 l-34 -23 -64
56 -64 56 -73 0 c-69 0 -75 -2 -116 -36 l-44 -35 0 -148 0 -148 48 -34 c43
-31 53 -34 117 -34 68 0 73 2 124 43 30 23 56 42 60 42 7 -1 61 -47 61 -53 0
-3 -32 -32 -72 -66 l-72 -61 -103 0 -103 0 -79 58 -80 57 0 182 -1 182 87 71
88 70 92 0 92 0 85 -71z m678 14 c43 -32 77 -61 77 -64 1 -4 -17 -18 -39 -33
l-40 -26 -44 40 -43 40 -132 0 c-120 0 -134 -2 -161 -22 -26 -19 -30 -28 -30
-69 0 -41 4 -50 29 -68 26 -19 44 -21 173 -21 l143 0 58 -41 57 -41 0 -69 c0
-77 1 -75 -96 -155 l-41 -34 -164 0 -165 0 -59 60 c-32 33 -57 61 -54 62 2 2
18 16 35 31 l31 28 49 -41 49 -40 125 0 125 0 45 40 45 39 -35 28 c-34 27 -38
28 -190 33 l-155 5 -52 38 -53 39 0 92 0 92 66 49 c36 26 80 51 97 55 18 5 86
8 152 9 l121 1 76 -57z m-706 -664 c5 -9 -1 -10 -20 -5 -35 9 -33 -5 5 -26 35
-21 38 -61 4 -65 -23 -3 -62 23 -52 34 4 4 13 1 19 -5 13 -13 48 -16 48 -4 0
4 -16 17 -35 29 -23 15 -32 28 -29 38 7 18 50 20 60 4z m214 2 c0 -5 -9 -11
-20 -14 -16 -4 -20 -14 -20 -52 0 -28 -4 -44 -10 -40 -5 3 -10 26 -10 51 0 40
-2 44 -25 44 -14 0 -25 5 -25 10 0 6 25 10 55 10 30 0 55 -4 55 -9z m444 -7
c9 -8 16 -27 16 -41 0 -22 -3 -24 -30 -18 l-30 7 30 -30 c16 -17 30 -36 30
-44 -1 -7 -14 3 -30 22 -29 33 -30 33 -30 10 0 -15 -4 -20 -9 -14 -8 7 -17 91
-12 117 2 13 49 7 65 -9z m216 7 c0 -5 -12 -11 -27 -13 -37 -4 -35 -21 3 -29
l29 -6 -30 -4 c-43 -6 -48 -39 -6 -39 17 0 31 -4 31 -10 0 -5 -18 -10 -40 -10
l-40 0 0 60 0 60 40 0 c22 0 40 -4 40 -9z m-420 -21 c27 -27 25 -55 -6 -79
-34 -26 -54 -26 -82 -1 -26 24 -28 47 -6 78 19 28 67 29 94 2z m-325 -234 c0
-18 -3 -22 -13 -14 -9 8 -9 14 -1 24 15 18 14 18 14 -10z m109 -25 c9 -11 8
-13 -4 -9 -8 2 -16 18 -17 34 -1 18 0 22 4 9 3 -11 10 -26 17 -34z m139 42
c-13 -2 -23 -11 -23 -19 0 -8 10 -19 23 -24 13 -5 16 -9 6 -9 -8 -1 -24 5 -34
13 -16 12 -17 16 -6 30 7 9 23 15 35 15 20 -2 20 -2 -1 -6z m91 -7 c-3 -8 -1
-17 5 -21 17 -10 13 -25 -6 -25 -9 0 -14 3 -10 6 3 3 2 17 -3 30 -7 18 -6 24
5 24 8 0 12 -6 9 -14z m82 -34 c-9 -8 -26 10 -26 26 1 15 2 15 15 -2 8 -11 13
-21 11 -24z m88 -4 c7 -5 5 -8 -6 -8 -13 0 -18 7 -17 28 1 21 2 22 6 7 3 -11
10 -23 17 -27z m53 10 c-3 -8 -6 -5 -6 6 -1 11 2 17 5 13 3 -3 4 -12 1 -19z
m-527 -213 c129 -85 242 -155 251 -155 15 0 224 133 397 253 l84 57 109 0 c66
0 109 -4 109 -10 0 -6 -43 -10 -108 -10 l-108 0 -233 -155 c-129 -85 -242
-155 -251 -155 -10 0 -123 70 -251 155 l-234 155 -108 0 c-70 0 -106 4 -102
10 3 6 51 10 108 10 l103 0 234 -155z"/>
<path d="M2692 1978 c3 -7 15 -15 27 -16 16 -3 22 1 19 10 -3 7 -15 15 -27 16
-16 3 -22 -1 -19 -10z"/>
<path d="M2461 1976 c-17 -20 -5 -53 21 -62 29 -9 67 29 52 54 -14 22 -57 27
-73 8z"/>
<path d="M2913 3280 c-1 -11 -1 -20 0 -20 2 0 10 9 20 20 16 19 16 20 -1 20
-11 0 -18 -8 -19 -20z"/>
<path d="M878 2493 c-10 -2 -18 -7 -18 -9 0 -3 58 -107 129 -232 70 -125 159
-283 196 -351 81 -150 228 -388 271 -440 5 -6 61 43 157 137 l88 85 -25 26
c-13 14 -76 108 -141 209 -68 106 -138 203 -167 230 -27 26 -61 67 -75 92 -15
25 -50 84 -80 132 -29 48 -53 97 -53 108 0 19 -6 20 -132 19 -73 -1 -141 -3
-150 -6z"/>
<path d="M3785 2368 c-49 -86 -93 -146 -146 -203 -54 -56 -112 -137 -198 -273
-67 -106 -121 -196 -121 -200 0 -8 225 -222 233 -222 3 0 23 33 45 73 53 98
82 149 172 307 43 74 130 230 195 345 64 116 128 229 142 253 l25 42 -139 0
-138 -1 -70 -121z"/>
<path d="M3150 1589 c-74 -50 -227 -149 -340 -221 -113 -72 -229 -146 -259
-165 -44 -29 -57 -33 -75 -24 -11 5 -183 118 -381 250 -198 132 -364 241 -368
241 -4 0 -40 -30 -80 -67 -40 -38 -95 -89 -124 -114 l-51 -46 159 -95 c87 -53
159 -92 159 -88 0 5 -9 11 -19 15 -10 3 -21 18 -24 33 -3 15 -9 39 -13 54 -20
85 38 105 122 41 27 -21 62 -50 79 -66 16 -15 44 -37 61 -49 17 -12 40 -34 50
-50 10 -15 24 -28 31 -28 6 0 20 -13 29 -29 10 -17 23 -27 31 -24 9 4 18 -6
26 -26 6 -17 17 -29 24 -27 6 3 19 -6 27 -19 9 -14 22 -23 29 -21 6 1 9 1 5
-1 -15 -9 -8 -23 12 -23 10 0 24 -8 29 -17 6 -10 11 -14 11 -9 0 5 7 3 15 -4
18 -15 20 -61 3 -80 -11 -12 -10 -12 5 -1 9 7 17 9 17 4 0 -5 7 -18 16 -29 8
-10 13 -13 9 -6 -3 6 -2 12 3 12 15 0 33 -26 24 -35 -4 -5 1 -5 11 -2 10 4 16
3 13 -2 -6 -9 63 -61 81 -61 19 0 999 593 1028 621 20 20 20 20 -30 66 -27 26
-82 77 -121 115 -40 37 -76 68 -80 67 -5 0 -70 -41 -144 -90z m-1032 -189
c210 -140 379 -256 377 -258 -4 -4 -775 507 -775 514 0 10 12 2 398 -256z
m237 -450 c3 -5 1 -10 -4 -10 -6 0 -11 5 -11 10 0 6 2 10 4 10 3 0 8 -4 11
-10z"/>
<path d="M1300 1475 c0 -96 4 -175 9 -175 9 0 131 134 131 144 0 9 -130 206
-136 206 -2 0 -4 -79 -4 -175z"/>
</g>
</svg>
